<svg width="68" height="43" viewBox="0 0 68 43" fill="none" xmlns="http://www.w3.org/2000/svg">
<rect y="38.2012" width="67.2603" height="3.97559" rx="1.98779" fill="white"/>
<rect opacity="0.5" x="0.436279" width="66.4756" height="40.1875" fill="url(#paint0_linear_10_13)"/>
<path d="M23.7004 26.0229C23.7004 24.9184 24.5959 24.0229 25.7004 24.0229H26.6677C27.7723 24.0229 28.6677 24.9184 28.6677 26.0229V31.62H23.7004V26.0229Z" fill="white"/>
<path d="M40.6782 27.7849C40.6782 26.6803 41.5737 25.7849 42.6782 25.7849H43.6455C44.7501 25.7849 45.6455 26.6803 45.6455 27.7849V31.6198H40.6782V27.7849Z" fill="white"/>
<path d="M20.1094 32.0574H47.8902" stroke="white" stroke-width="2" stroke-linecap="round"/>
<path d="M32.1892 20.075C32.1892 18.9704 33.0846 18.075 34.1892 18.075H35.1565C36.2611 18.075 37.1565 18.9704 37.1565 20.075V31.62H32.1892V20.075Z" fill="white"/>
<path d="M25.2152 15.3806C24.3634 15.3806 23.6709 16.0731 23.6709 16.9249C23.6709 17.7604 24.3244 18.4366 25.1761 18.4659C25.2022 18.4626 25.2282 18.4626 25.2477 18.4659H25.2639H25.2704C26.1027 18.4366 26.7562 17.7604 26.7594 16.9249C26.7594 16.0731 26.0669 15.3806 25.2152 15.3806Z" fill="white"/>
<path d="M26.867 19.3307C25.96 18.726 24.4808 18.726 23.5672 19.3307C23.1543 19.6071 22.9268 19.9809 22.9268 20.3808C22.9268 20.7807 23.1543 21.1513 23.564 21.4244C24.0191 21.73 24.6173 21.8828 25.2155 21.8828C25.8137 21.8828 26.4119 21.73 26.867 21.4244C27.2767 21.1481 27.5042 20.7774 27.5042 20.3743C27.501 19.9744 27.2767 19.6038 26.867 19.3307Z" fill="white"/>
<path d="M28.7878 17.1165C28.8399 17.7473 28.3912 18.2999 27.7703 18.3747C27.767 18.3747 27.767 18.3747 27.7638 18.3747H27.754C27.7345 18.3747 27.715 18.3747 27.6987 18.3812C27.3834 18.3975 27.094 18.2967 26.8762 18.1114C27.2111 17.8123 27.4029 17.3636 27.3639 16.876C27.3411 16.6126 27.2501 16.3721 27.1135 16.1672C27.2371 16.1055 27.3801 16.0665 27.5264 16.0534C28.1636 15.9982 28.7326 16.4728 28.7878 17.1165Z" fill="white"/>
<path d="M29.4383 20.124C29.4122 20.4394 29.2107 20.7124 28.8726 20.8978C28.5475 21.0766 28.1378 21.1611 27.7314 21.1513C27.9655 20.94 28.1021 20.6767 28.1281 20.3971C28.1606 19.994 27.9688 19.6071 27.5851 19.2982C27.3673 19.1259 27.1137 18.9894 26.8374 18.8886C27.5559 18.6805 28.4597 18.8203 29.0156 19.269C29.3147 19.5096 29.4675 19.8119 29.4383 20.124Z" fill="white"/>
<path d="M42.3626 18.3452C41.5108 18.3452 40.8184 19.0377 40.8184 19.8895C40.8184 20.725 41.4718 21.4012 42.3236 21.4305C42.3496 21.4272 42.3756 21.4272 42.3951 21.4305H42.4114H42.4179C43.2502 21.4012 43.9036 20.725 43.9069 19.8895C43.9069 19.0377 43.2144 18.3452 42.3626 18.3452Z" fill="white"/>
<path d="M44.0145 22.2953C43.1074 21.6906 41.6282 21.6906 40.7147 22.2953C40.3018 22.5717 40.0742 22.9455 40.0742 23.3454C40.0742 23.7453 40.3018 24.1159 40.7114 24.389C41.1666 24.6946 41.7648 24.8474 42.363 24.8474C42.9612 24.8474 43.5593 24.6946 44.0145 24.389C44.4241 24.1127 44.6517 23.742 44.6517 23.3389C44.6485 22.939 44.4241 22.5684 44.0145 22.2953Z" fill="white"/>
<path d="M45.9353 20.0814C45.9873 20.7121 45.5387 21.2648 44.9177 21.3396C44.9145 21.3396 44.9145 21.3396 44.9112 21.3396H44.9015C44.882 21.3396 44.8625 21.3396 44.8462 21.3461C44.5308 21.3623 44.2415 21.2615 44.0237 21.0762C44.3585 20.7771 44.5504 20.3285 44.5113 19.8408C44.4886 19.5775 44.3976 19.3369 44.261 19.1321C44.3846 19.0703 44.5276 19.0313 44.6739 19.0183C45.3111 18.963 45.88 19.4377 45.9353 20.0814Z" fill="white"/>
<path d="M46.5857 23.0886C46.5597 23.404 46.3581 23.677 46.02 23.8624C45.6949 24.0412 45.2853 24.1257 44.8789 24.1159C45.113 23.9046 45.2495 23.6413 45.2755 23.3617C45.308 22.9586 45.1162 22.5717 44.7326 22.2628C44.5148 22.0905 44.2612 21.954 43.9849 21.8532C44.7033 21.6451 45.6071 21.7849 46.1631 22.2336C46.4622 22.4742 46.615 22.7765 46.5857 23.0886Z" fill="white"/>
<path d="M34.2014 9.33618C33.2811 9.33618 32.533 10.0843 32.533 11.0046C32.533 11.9073 33.239 12.6379 34.1593 12.6696C34.1874 12.666 34.2155 12.666 34.2365 12.6696H34.2541H34.2611C35.1603 12.6379 35.8663 11.9073 35.8698 11.0046C35.8698 10.0843 35.1217 9.33618 34.2014 9.33618Z" fill="white"/>
<path d="M35.9862 13.604C35.0062 12.9507 33.408 12.9507 32.421 13.604C31.9749 13.9026 31.729 14.3065 31.729 14.7386C31.729 15.1706 31.9749 15.571 32.4175 15.8661C32.9092 16.1962 33.5555 16.3613 34.2018 16.3613C34.8481 16.3613 35.4944 16.1962 35.9862 15.8661C36.4287 15.5675 36.6746 15.1671 36.6746 14.7315C36.6711 14.2995 36.4287 13.8991 35.9862 13.604Z" fill="white"/>
<path d="M38.0617 11.2119C38.1179 11.8933 37.6332 12.4905 36.9623 12.5713C36.9588 12.5713 36.9588 12.5713 36.9553 12.5713H36.9447C36.9236 12.5713 36.9026 12.5713 36.885 12.5783C36.5443 12.5958 36.2317 12.487 35.9963 12.2867C36.3581 11.9636 36.5654 11.4789 36.5232 10.952C36.4986 10.6675 36.4003 10.4075 36.2528 10.1863C36.3862 10.1195 36.5408 10.0774 36.6988 10.0633C37.3873 10.0036 38.002 10.5164 38.0617 11.2119Z" fill="white"/>
<path d="M38.7644 14.4607C38.7363 14.8014 38.5185 15.0964 38.1532 15.2967C37.8019 15.4899 37.3594 15.5812 36.9203 15.5706C37.1732 15.3423 37.3207 15.0578 37.3488 14.7557C37.3839 14.3202 37.1767 13.9022 36.7622 13.5685C36.5269 13.3823 36.2529 13.2348 35.9543 13.1259C36.7306 12.9011 37.7071 13.0522 38.3077 13.5369C38.6309 13.7968 38.796 14.1235 38.7644 14.4607Z" fill="white"/>
<defs>
<linearGradient id="paint0_linear_10_13" x1="33.6741" y1="60.2778" x2="33.6741" y2="23.1178" gradientUnits="userSpaceOnUse">
<stop stop-color="white"/>
<stop offset="1" stop-color="#131313"/>
</linearGradient>
</defs>
</svg>
