<svg width="152" height="57" viewBox="0 0 152 57" fill="none" xmlns="http://www.w3.org/2000/svg">
<circle cx="12.1316" cy="12.5378" r="11.9207" fill="white"/>
<path d="M12.3297 6.21216C10.3498 6.21216 8.74023 7.82174 8.74023 9.80159C8.74023 11.7437 10.2591 13.3155 12.239 13.3835C12.2994 13.3759 12.3599 13.3759 12.4052 13.3835H12.443H12.4581C14.3926 13.3155 15.9115 11.7437 15.9191 9.80159C15.9191 7.82174 14.3095 6.21216 12.3297 6.21216Z" fill="#131313"/>
<path d="M16.1692 15.3923C14.0609 13.9867 10.6226 13.9867 8.49917 15.3923C7.53947 16.0346 7.0105 16.9036 7.0105 17.8331C7.0105 18.7626 7.53947 19.624 8.49161 20.2588C9.54955 20.9691 10.94 21.3243 12.3304 21.3243C13.7208 21.3243 15.1113 20.9691 16.1692 20.2588C17.1213 19.6165 17.6503 18.755 17.6503 17.818C17.6428 16.8885 17.1213 16.0271 16.1692 15.3923Z" fill="#131313"/>
<path d="M38.3066 8.99227V10.1083H36.0866V17.3323H34.7186V10.1083H32.4866V8.99227H38.3066ZM40.388 9.84428C40.14 9.84428 39.932 9.76028 39.764 9.59227C39.596 9.42428 39.512 9.21628 39.512 8.96828C39.512 8.72027 39.596 8.51227 39.764 8.34428C39.932 8.17628 40.14 8.09227 40.388 8.09227C40.628 8.09227 40.832 8.17628 41 8.34428C41.168 8.51227 41.252 8.72027 41.252 8.96828C41.252 9.21628 41.168 9.42428 41 9.59227C40.832 9.76028 40.628 9.84428 40.388 9.84428ZM41.06 10.7203V17.3323H39.692V10.7203H41.06ZM50.8601 10.6123C51.3801 10.6123 51.8441 10.7203 52.2521 10.9363C52.6681 11.1523 52.9921 11.4723 53.2241 11.8963C53.4641 12.3203 53.5841 12.8323 53.5841 13.4323V17.3323H52.2281V13.6363C52.2281 13.0443 52.0801 12.5923 51.7841 12.2803C51.4881 11.9603 51.0841 11.8003 50.5721 11.8003C50.0601 11.8003 49.6521 11.9603 49.3481 12.2803C49.0521 12.5923 48.9041 13.0443 48.9041 13.6363V17.3323H47.5481V13.6363C47.5481 13.0443 47.4001 12.5923 47.1041 12.2803C46.8081 11.9603 46.4041 11.8003 45.8921 11.8003C45.3801 11.8003 44.9721 11.9603 44.6681 12.2803C44.3721 12.5923 44.2241 13.0443 44.2241 13.6363V17.3323H42.8561V10.7203H44.2241V11.4763C44.4481 11.2043 44.7321 10.9923 45.0761 10.8403C45.4201 10.6883 45.7881 10.6123 46.1801 10.6123C46.7081 10.6123 47.1801 10.7243 47.5961 10.9483C48.0121 11.1723 48.3321 11.4963 48.5561 11.9203C48.7561 11.5203 49.0681 11.2043 49.4921 10.9723C49.9161 10.7323 50.3721 10.6123 50.8601 10.6123ZM61.3848 13.8643C61.3848 14.1123 61.3688 14.3363 61.3368 14.5363H56.2848C56.3248 15.0643 56.5208 15.4883 56.8728 15.8083C57.2248 16.1283 57.6568 16.2883 58.1688 16.2883C58.9048 16.2883 59.4248 15.9803 59.7288 15.3643H61.2048C61.0048 15.9723 60.6408 16.4723 60.1128 16.8643C59.5928 17.2483 58.9448 17.4403 58.1688 17.4403C57.5368 17.4403 56.9688 17.3003 56.4648 17.0203C55.9688 16.7323 55.5768 16.3323 55.2888 15.8203C55.0088 15.3003 54.8688 14.7003 54.8688 14.0203C54.8688 13.3403 55.0048 12.7443 55.2768 12.2323C55.5568 11.7123 55.9448 11.3123 56.4408 11.0323C56.9448 10.7523 57.5208 10.6123 58.1688 10.6123C58.7928 10.6123 59.3488 10.7483 59.8368 11.0203C60.3248 11.2923 60.7048 11.6763 60.9768 12.1723C61.2488 12.6603 61.3848 13.2243 61.3848 13.8643ZM59.9568 13.4323C59.9488 12.9283 59.7688 12.5243 59.4168 12.2203C59.0648 11.9163 58.6288 11.7643 58.1088 11.7643C57.6368 11.7643 57.2328 11.9163 56.8968 12.2203C56.5608 12.5163 56.3608 12.9203 56.2968 13.4323H59.9568ZM65.1311 17.4403C64.6111 17.4403 64.1431 17.3483 63.7271 17.1643C63.3191 16.9723 62.9951 16.7163 62.7551 16.3963C62.5151 16.0683 62.3871 15.7043 62.3711 15.3043H63.7871C63.8111 15.5843 63.9431 15.8203 64.1831 16.0123C64.4311 16.1963 64.7391 16.2883 65.1071 16.2883C65.4911 16.2883 65.7871 16.2163 65.9951 16.0723C66.2111 15.9203 66.3191 15.7283 66.3191 15.4963C66.3191 15.2483 66.1991 15.0643 65.9591 14.9443C65.7271 14.8243 65.3551 14.6923 64.8431 14.5483C64.3471 14.4123 63.9431 14.2803 63.6311 14.1523C63.3191 14.0243 63.0471 13.8283 62.8151 13.5643C62.5911 13.3003 62.4791 12.9523 62.4791 12.5203C62.4791 12.1683 62.5831 11.8483 62.7911 11.5603C62.9991 11.2643 63.2951 11.0323 63.6791 10.8643C64.0711 10.6963 64.5191 10.6123 65.0231 10.6123C65.7751 10.6123 66.3791 10.8043 66.8351 11.1883C67.2991 11.5643 67.5471 12.0803 67.5791 12.7363H66.2111C66.1871 12.4403 66.0671 12.2043 65.8511 12.0283C65.6351 11.8523 65.3431 11.7643 64.9751 11.7643C64.6151 11.7643 64.3391 11.8323 64.1471 11.9683C63.9551 12.1043 63.8591 12.2843 63.8591 12.5083C63.8591 12.6843 63.9231 12.8323 64.0511 12.9523C64.1791 13.0723 64.3351 13.1683 64.5191 13.2403C64.7031 13.3043 64.9751 13.3883 65.3351 13.4923C65.8151 13.6203 66.2071 13.7523 66.5111 13.8883C66.8231 14.0163 67.0911 14.2083 67.3151 14.4643C67.5391 14.7203 67.6551 15.0603 67.6631 15.4843C67.6631 15.8603 67.5591 16.1963 67.3511 16.4923C67.1431 16.7883 66.8471 17.0203 66.4631 17.1883C66.0871 17.3563 65.6431 17.4403 65.1311 17.4403ZM75.1264 17.4403C74.5024 17.4403 73.9384 17.3003 73.4344 17.0203C72.9304 16.7323 72.5344 16.3323 72.2464 15.8203C71.9584 15.3003 71.8144 14.7003 71.8144 14.0203C71.8144 13.3483 71.9624 12.7523 72.2584 12.2323C72.5544 11.7123 72.9584 11.3123 73.4704 11.0323C73.9824 10.7523 74.5544 10.6123 75.1864 10.6123C75.8184 10.6123 76.3904 10.7523 76.9024 11.0323C77.4144 11.3123 77.8184 11.7123 78.1144 12.2323C78.4104 12.7523 78.5584 13.3483 78.5584 14.0203C78.5584 14.6923 78.4064 15.2883 78.1024 15.8083C77.7984 16.3283 77.3824 16.7323 76.8544 17.0203C76.3344 17.3003 75.7584 17.4403 75.1264 17.4403ZM75.1264 16.2523C75.4784 16.2523 75.8064 16.1683 76.1104 16.0003C76.4224 15.8323 76.6744 15.5803 76.8664 15.2443C77.0584 14.9083 77.1544 14.5003 77.1544 14.0203C77.1544 13.5403 77.0624 13.1363 76.8784 12.8083C76.6944 12.4723 76.4504 12.2203 76.1464 12.0523C75.8424 11.8843 75.5144 11.8003 75.1624 11.8003C74.8104 11.8003 74.4824 11.8843 74.1784 12.0523C73.8824 12.2203 73.6464 12.4723 73.4704 12.8083C73.2944 13.1363 73.2064 13.5403 73.2064 14.0203C73.2064 14.7323 73.3864 15.2843 73.7464 15.6763C74.1144 16.0603 74.5744 16.2523 75.1264 16.2523ZM82.6827 11.8363H81.4587V17.3323H80.0787V11.8363H79.2987V10.7203H80.0787V10.2523C80.0787 9.49227 80.2787 8.94027 80.6787 8.59627C81.0867 8.24428 81.7227 8.06828 82.5867 8.06828V9.20827C82.1707 9.20827 81.8787 9.28828 81.7107 9.44828C81.5427 9.60028 81.4587 9.86828 81.4587 10.2523V10.7203H82.6827V11.8363ZM88.3803 8.99227V17.3323H87.0123V8.99227H88.3803ZM93.5124 10.6123C94.0324 10.6123 94.4964 10.7203 94.9044 10.9363C95.3204 11.1523 95.6444 11.4723 95.8764 11.8963C96.1084 12.3203 96.2244 12.8323 96.2244 13.4323V17.3323H94.8684V13.6363C94.8684 13.0443 94.7204 12.5923 94.4244 12.2803C94.1284 11.9603 93.7244 11.8003 93.2124 11.8003C92.7004 11.8003 92.2924 11.9603 91.9884 12.2803C91.6924 12.5923 91.5444 13.0443 91.5444 13.6363V17.3323H90.1764V10.7203H91.5444V11.4763C91.7684 11.2043 92.0524 10.9923 92.3964 10.8403C92.7484 10.6883 93.1204 10.6123 93.5124 10.6123ZM97.5133 13.9963C97.5133 13.3323 97.6493 12.7443 97.9213 12.2323C98.2013 11.7203 98.5773 11.3243 99.0493 11.0443C99.5293 10.7563 100.061 10.6123 100.645 10.6123C101.077 10.6123 101.501 10.7083 101.917 10.9003C102.341 11.0843 102.677 11.3323 102.925 11.6443V8.45228H104.305V17.3323H102.925V16.3363C102.701 16.6563 102.389 16.9203 101.989 17.1283C101.597 17.3363 101.145 17.4403 100.633 17.4403C100.057 17.4403 99.5293 17.2963 99.0493 17.0083C98.5773 16.7123 98.2013 16.3043 97.9213 15.7843C97.6493 15.2563 97.5133 14.6603 97.5133 13.9963ZM102.925 14.0203C102.925 13.5643 102.829 13.1683 102.637 12.8323C102.453 12.4963 102.209 12.2403 101.905 12.0643C101.601 11.8883 101.273 11.8003 100.921 11.8003C100.569 11.8003 100.241 11.8883 99.9373 12.0643C99.6333 12.2323 99.3853 12.4843 99.1933 12.8203C99.0093 13.1483 98.9173 13.5403 98.9173 13.9963C98.9173 14.4523 99.0093 14.8523 99.1933 15.1963C99.3853 15.5403 99.6333 15.8043 99.9373 15.9883C100.249 16.1643 100.577 16.2523 100.921 16.2523C101.273 16.2523 101.601 16.1643 101.905 15.9883C102.209 15.8123 102.453 15.5563 102.637 15.2203C102.829 14.8763 102.925 14.4763 102.925 14.0203ZM106.798 9.84428C106.55 9.84428 106.342 9.76028 106.174 9.59227C106.006 9.42428 105.922 9.21628 105.922 8.96828C105.922 8.72027 106.006 8.51227 106.174 8.34428C106.342 8.17628 106.55 8.09227 106.798 8.09227C107.038 8.09227 107.242 8.17628 107.41 8.34428C107.578 8.51227 107.662 8.72027 107.662 8.96828C107.662 9.21628 107.578 9.42428 107.41 9.59227C107.242 9.76028 107.038 9.84428 106.798 9.84428ZM107.47 10.7203V17.3323H106.102V10.7203H107.47ZM108.81 13.9963C108.81 13.3323 108.946 12.7443 109.218 12.2323C109.498 11.7203 109.874 11.3243 110.346 11.0443C110.826 10.7563 111.354 10.6123 111.93 10.6123C112.45 10.6123 112.902 10.7163 113.286 10.9243C113.678 11.1243 113.99 11.3763 114.222 11.6803V10.7203H115.602V17.3323H114.222V16.3483C113.99 16.6603 113.674 16.9203 113.274 17.1283C112.874 17.3363 112.418 17.4403 111.906 17.4403C111.338 17.4403 110.818 17.2963 110.346 17.0083C109.874 16.7123 109.498 16.3043 109.218 15.7843C108.946 15.2563 108.81 14.6603 108.81 13.9963ZM114.222 14.0203C114.222 13.5643 114.126 13.1683 113.934 12.8323C113.75 12.4963 113.506 12.2403 113.202 12.0643C112.898 11.8883 112.57 11.8003 112.218 11.8003C111.866 11.8003 111.538 11.8883 111.234 12.0643C110.93 12.2323 110.682 12.4843 110.49 12.8203C110.306 13.1483 110.214 13.5403 110.214 13.9963C110.214 14.4523 110.306 14.8523 110.49 15.1963C110.682 15.5403 110.93 15.8043 111.234 15.9883C111.546 16.1643 111.874 16.2523 112.218 16.2523C112.57 16.2523 112.898 16.1643 113.202 15.9883C113.506 15.8123 113.75 15.5563 113.934 15.2203C114.126 14.8763 114.222 14.4763 114.222 14.0203ZM123.09 19.6963C122.314 18.9443 121.71 17.9843 121.278 16.8163C120.854 15.6483 120.642 14.3963 120.642 13.0603C120.642 11.6923 120.866 10.4083 121.314 9.20827C121.762 8.00027 122.414 7.01227 123.27 6.24428H124.962V6.40027C124.082 7.24027 123.41 8.24827 122.946 9.42427C122.49 10.6003 122.262 11.8123 122.262 13.0603C122.262 14.2763 122.478 15.4523 122.91 16.5883C123.35 17.7163 123.974 18.6963 124.782 19.5283V19.6963H123.09ZM131.711 8.95628V10.3123H129.479V17.3323H127.799V10.3123H125.567V8.95628H131.711ZM136.824 17.4163C136.04 17.4163 135.32 17.2323 134.664 16.8643C134.008 16.4963 133.488 15.9883 133.104 15.3403C132.72 14.6843 132.528 13.9443 132.528 13.1203C132.528 12.3043 132.72 11.5723 133.104 10.9243C133.488 10.2683 134.008 9.75627 134.664 9.38827C135.32 9.02028 136.04 8.83628 136.824 8.83628C137.616 8.83628 138.336 9.02028 138.984 9.38827C139.64 9.75627 140.156 10.2683 140.532 10.9243C140.916 11.5723 141.108 12.3043 141.108 13.1203C141.108 13.9443 140.916 14.6843 140.532 15.3403C140.156 15.9883 139.64 16.4963 138.984 16.8643C138.328 17.2323 137.608 17.4163 136.824 17.4163ZM136.824 15.9163C137.328 15.9163 137.772 15.8043 138.156 15.5803C138.54 15.3483 138.84 15.0203 139.056 14.5963C139.272 14.1723 139.38 13.6803 139.38 13.1203C139.38 12.5603 139.272 12.0723 139.056 11.6563C138.84 11.2323 138.54 10.9083 138.156 10.6843C137.772 10.4603 137.328 10.3483 136.824 10.3483C136.32 10.3483 135.872 10.4603 135.48 10.6843C135.096 10.9083 134.796 11.2323 134.58 11.6563C134.364 12.0723 134.256 12.5603 134.256 13.1203C134.256 13.6803 134.364 14.1723 134.58 14.5963C134.796 15.0203 135.096 15.3483 135.48 15.5803C135.872 15.8043 136.32 15.9163 136.824 15.9163ZM144.038 8.95628V17.3323H142.358V8.95628H144.038ZM145.266 19.6963V19.5283C146.074 18.6963 146.694 17.7163 147.126 16.5883C147.566 15.4523 147.786 14.2763 147.786 13.0603C147.786 11.8123 147.554 10.6003 147.09 9.42427C146.634 8.24827 145.966 7.24027 145.086 6.40027V6.24428H146.778C147.634 7.01227 148.286 8.00027 148.734 9.20827C149.182 10.4083 149.406 11.6923 149.406 13.0603C149.406 14.3963 149.19 15.6483 148.758 16.8163C148.334 17.9843 147.734 18.9443 146.958 19.6963H145.266Z" fill="white"/>
<path d="M47.9652 46.91C47.9675 47.9358 47.5723 48.9226 46.8626 49.6633C45.2352 51.3506 43.6566 53.11 41.9692 54.7353C41.5819 55.102 40.9679 55.0886 40.5979 54.7053L35.7346 49.664C34.2646 48.14 34.2646 45.68 35.7346 44.1566C36.082 43.792 36.4999 43.5016 36.9628 43.3033C37.4258 43.1049 37.9242 43.0026 38.4279 43.0026C38.9316 43.0026 39.43 43.1049 39.893 43.3033C40.356 43.5016 40.7738 43.792 41.1212 44.1566L41.2986 44.3393L41.4752 44.1566C41.8234 43.7928 42.2414 43.503 42.7042 43.3046C43.167 43.1062 43.665 43.0033 44.1686 43.002C45.1819 43.002 46.1506 43.418 46.8619 44.1566C47.5719 44.8972 47.9674 45.884 47.9652 46.91Z" stroke="white" stroke-width="1.5" stroke-linejoin="round"/>
<path opacity="0.5" d="M57.5004 52.472C58.2684 51.808 58.8724 51.264 59.3124 50.84C59.7604 50.408 60.1324 49.96 60.4284 49.496C60.7244 49.032 60.8724 48.568 60.8724 48.104C60.8724 47.624 60.7564 47.248 60.5244 46.976C60.3004 46.704 59.9444 46.568 59.4564 46.568C58.9844 46.568 58.6164 46.72 58.3524 47.024C58.0964 47.32 57.9604 47.72 57.9444 48.224H56.6244C56.6484 47.312 56.9204 46.616 57.4404 46.136C57.9684 45.648 58.6364 45.404 59.4444 45.404C60.3164 45.404 60.9964 45.644 61.4844 46.124C61.9804 46.604 62.2284 47.244 62.2284 48.044C62.2284 48.62 62.0804 49.176 61.7844 49.712C61.4964 50.24 61.1484 50.716 60.7404 51.14C60.3404 51.556 59.8284 52.04 59.2044 52.592L58.6644 53.072H62.4684V54.212H56.6364V53.216L57.5004 52.472ZM64.4022 54.416C64.1542 54.416 63.9462 54.332 63.7782 54.164C63.6102 53.996 63.5262 53.788 63.5262 53.54C63.5262 53.292 63.6102 53.084 63.7782 52.916C63.9462 52.748 64.1542 52.664 64.4022 52.664C64.6422 52.664 64.8462 52.748 65.0142 52.916C65.1822 53.084 65.2662 53.292 65.2662 53.54C65.2662 53.788 65.1822 53.996 65.0142 54.164C64.8462 54.332 64.6422 54.416 64.4022 54.416ZM66.3847 46.832V45.584H68.8807V54.332H67.5007V46.832H66.3847ZM75.536 54.332L72.308 50.6V54.332H70.94V45.992H72.308V49.796L75.548 45.992H77.264L73.64 50.168L77.324 54.332H75.536Z" fill="white"/>
</svg>
